<svg viewBox="0 0 24 24" xmlns="http://www.w3.org/2000/svg"><path d="M19.75 3H18V2a1 1 0 0 0-2 0v1h-3V2a1 1 0 0 0-2 0v1H8V2a1 1 0 0 0-2 0v1H4.25A2.25 2.25 0 0 0 2 5.25v15.5A2.25 2.25 0 0 0 4.25 23H14a1 1 0 1 0 0-2H4.25a.25.25 0 0 1-.25-.25V5.25A.25.25 0 0 1 4.25 5H6v1a1 1 0 0 0 2 0V5h3v1a1 1 0 0 0 2 0V5h3v1a1 1 0 0 0 2 0V5h1.75a.25.25 0 0 1 .25.25V15a1 1 0 0 0 2 0V5.25A2.25 2.25 0 0 0 19.75 3Z" fill="#ffffff" class="fill-000000"></path><path d="M21 19h-1v-1a1 1 0 0 0-2 0v1h-1a1 1 0 0 0 0 2h1v1a1 1 0 0 0 2 0v-1h1a1 1 0 0 0 0-2ZM18 11a1 1 0 0 0-1-1H7a1 1 0 0 0 0 2h10a1 1 0 0 0 1-1ZM7 15a1 1 0 0 0 0 2h5a1 1 0 0 0 0-2Z" fill="#ffffff" class="fill-000000"></path></svg>