<svg viewBox="0 0 64 64" xmlns="http://www.w3.org/2000/svg"><path d="M32 2.11a32 32 0 0 0-32 32c0 5.14.82 8.18 2.68 9.89 2.08 1.87 4.8 1.59 7.67 1.29 5.52-.59 12.4-1.31 19.9 11.85 1.75 3.07 5.49 4.79 9.94 4.79a19.51 19.51 0 0 0 4.57-.57C53.23 59.25 63.34 50.91 64 34.19a30 30 0 0 0-8.54-22.11A32.75 32.75 0 0 0 32 2.11ZM60 34c-.56 14.48-8.72 21.58-16.18 23.4-4.53 1.11-8.68.16-10.08-2.31C26.81 43 19.76 41 14.16 41a38.18 38.18 0 0 0-4.23.29c-2.36.25-3.85.37-4.58-.29S4 38.78 4 34.11a28 28 0 0 1 28-28 28.66 28.66 0 0 1 20.57 8.75A26 26 0 0 1 60 33v1Z" fill="#ffffff" class="fill-000000"></path><circle cx="13.49" cy="25.61" r="5.5" fill="#ffffff" class="fill-000000"></circle><circle cx="27.49" cy="17.61" r="7.5" fill="#ffffff" class="fill-000000"></circle><circle cx="44.99" cy="25.11" r="9" fill="#ffffff" class="fill-000000"></circle><path d="M42.77 36.33a9.78 9.78 0 1 0 9.77 9.78 9.79 9.79 0 0 0-9.77-9.78Z" fill="#ffffff" class="fill-000000"></path></svg>