<svg data-name="Layer 1" viewBox="0 0 24 24" xmlns="http://www.w3.org/2000/svg"><path d="m12 10.85 1 .57v1.16l-1 .57-1-.57v-1.16l1-.57m0-2.31-3 1.73v3.46l3 1.73 3-1.73v-3.46l-3-1.73Z" fill="#ffffff" class="fill-000000"></path><path d="M12.56 5 13 6.25l.27.83.8.36a5 5 0 0 1 .86.51l.72.51.85-.18L17.78 8l.56 1-.87 1-.58.65.08.87a4.35 4.35 0 0 1 0 1l-.08.87.58.65.87 1-.56 1-1.3-.26-.85-.18-.72.51a5 5 0 0 1-.86.51l-.8.36-.27.83-.42 1.19h-1.12L11 17.75l-.27-.83-.8-.36a5 5 0 0 1-.86-.51l-.72-.51-.85.18-1.28.28-.56-1 .87-1 .58-.65-.11-.84a4.35 4.35 0 0 1 0-1l.08-.87-.55-.64-.87-1 .56-1 1.3.26.85.18.72-.44a5 5 0 0 1 .91-.56l.8-.36.2-.83.44-1.25h1.12M14 3h-4l-.87 2.62a7.2 7.2 0 0 0-1.21.7l-2.71-.55-2 3.46L5 11.3a6.15 6.15 0 0 0 0 1.4l-1.79 2.07 2 3.46 2.71-.55a7.2 7.2 0 0 0 1.21.7L10 21h4l.87-2.62a7.2 7.2 0 0 0 1.21-.7l2.71.55 2-3.46L19 12.7a6.14 6.14 0 0 0 0-1.4l1.83-2.07-2-3.46-2.71.55a7.2 7.2 0 0 0-1.21-.7L14 3Z" fill="#ffffff" class="fill-000000"></path></svg>